# xmcd CD database file
#
# Track frame offsets:
#	150
#	14502
#	26477
#	41937
#	59875
#	77927
#	90340
#	108510
#	124520
#	138982
#	152745
#	166857
#
# Disc length: 2408 seconds
#
# Revision: 2
# Processed by: cddbd v1.5.2PL0 Copyright (c) Steve Scherf et al.
# Submitted via: CDex 1.51
#
DISCID=9b09660c
DTITLE=Mindy McCready - The Very Best Of Mindy McCready
DYEAR=2013
DGENRE=Country
TTITLE0=Mindy McCready - Guys Do It All The Time
TTITLE1=Mindy McCready - A Girl's Gotta Do (What A Girl's Gotta Do)
TTITLE2=Mindy McCready - Ten Thousand Angels
TTITLE3=Mindy McCready feat. Richie McDonald - Maybe He'll Notice Her Now
TTITLE4=Mindy McCready - You'll Never Know
TTITLE5=Mindy McCready - All I Want Is Everything
TTITLE6=Mindy McCready - Let's Talk About Love
TTITLE7=Mindy McCready - If I Don't Stay The Night
TTITLE8=Mindy McCready - For A Good Time Call
TTITLE9=Mindy McCready - This Is Me
TTITLE10=Mindy McCready - Tumble And Roll
TTITLE11=Mindy McCready - It Ain't A Party
EXTD=YEAR: 2013
EXTT0=
EXTT1=
EXTT2=
EXTT3=
EXTT4=
EXTT5=
EXTT6=
EXTT7=
EXTT8=
EXTT9=
EXTT10=
EXTT11=
PLAYORDER=
